<?xml version="1.0" standalone="no"?>
<!DOCTYPE svg PUBLIC "-//W3C//DTD SVG 20010904//EN"
 "http://www.w3.org/TR/2001/REC-SVG-20010904/DTD/svg10.dtd">
<svg version="1.0" xmlns="http://www.w3.org/2000/svg"
 width="590.000000pt" height="580.000000pt" viewBox="0 0 590.000000 580.000000"
 preserveAspectRatio="xMidYMid meet">

<g transform="translate(0.000000,580.000000) scale(0.100000,-0.100000)"
fill="#000000" stroke="none">
<path d="M1290 5575 c0 -3 51 -43 113 -89 129 -97 306 -275 356 -360 76 -127
115 -291 109 -456 l-3 -94 -50 -14 c-164 -43 -323 -97 -340 -114 -20 -20 -20
-20 15 -13 19 3 64 14 100 23 37 9 107 16 165 17 l100 0 3 -82 3 -82 -103 -60
c-60 -35 -126 -83 -158 -115 -38 -40 -64 -58 -90 -62 -19 -4 -56 -19 -81 -35
-25 -16 -56 -29 -69 -29 -103 0 -215 -146 -300 -390 -18 -52 -57 -149 -86
-216 -99 -226 -130 -379 -121 -592 6 -152 22 -229 106 -498 59 -193 83 -304
79 -370 l-3 -48 -86 -46 c-47 -25 -102 -58 -122 -73 l-36 -29 -123 31 c-159
40 -290 55 -405 47 -141 -10 -160 -25 -31 -25 134 -1 228 -14 393 -53 72 -17
131 -32 133 -33 2 -2 -13 -34 -33 -71 -34 -64 -35 -69 -18 -74 19 -5 18 -9 -9
-86 l-29 -80 -122 -38 c-67 -21 -164 -58 -214 -83 -107 -53 -146 -86 -62 -52
134 53 191 74 286 104 57 18 103 30 103 27 0 -4 5 -38 10 -77 17 -111 71 -185
168 -226 54 -23 52 -23 52 1 0 16 17 8 108 -51 96 -64 211 -129 227 -129 6 0
1 23 -13 59 -3 8 37 -23 89 -69 122 -108 281 -212 466 -306 372 -188 417 -221
534 -385 53 -76 143 -141 227 -165 119 -35 258 2 392 103 57 43 99 64 175 90
215 74 414 185 628 351 125 97 223 193 392 382 293 326 449 464 573 504 50 17
209 46 248 46 34 0 30 12 -17 55 -22 20 -38 40 -34 43 12 13 259 7 315 -7 30
-7 88 -31 128 -52 66 -36 73 -38 80 -22 4 10 7 79 6 153 -1 112 -5 152 -27
232 -43 162 -114 296 -211 398 -26 28 -47 52 -45 54 2 1 26 18 54 37 72 48
181 164 226 240 124 207 190 511 175 799 -9 165 -27 288 -86 565 -69 326 -83
435 -77 580 8 178 62 356 157 516 44 75 57 82 201 114 42 9 85 22 94 29 47 34
-405 69 -616 47 -503 -52 -918 -270 -1528 -803 -68 -59 -131 -108 -140 -108
-9 0 -43 16 -76 36 -93 56 -324 170 -453 223 -120 49 -341 124 -400 136 -27 6
-44 23 -104 108 -85 122 -306 346 -424 430 -175 124 -429 232 -628 268 -101
18 -216 25 -216 14z m270 -82 c345 -113 693 -357 911 -639 l47 -60 -164 4
c-163 4 -254 -2 -254 -17 0 -5 51 -16 113 -25 141 -22 365 -74 393 -91 12 -8
27 -28 33 -46 l11 -32 -73 8 c-39 4 -159 11 -265 14 l-194 6 -22 70 c-85 269
-337 577 -681 832 l-30 23 35 -6 c19 -4 82 -22 140 -41z m4155 -271 l50 -7
-85 -13 c-248 -39 -616 -187 -820 -330 -152 -107 -366 -296 -467 -412 -141
-163 -302 -446 -368 -645 -37 -114 -58 -246 -50 -317 8 -65 19 -75 29 -26 l6
33 24 -51 c30 -65 91 -133 135 -151 34 -15 84 -10 109 10 26 21 45 72 44 122
0 44 -7 67 -41 140 -2 6 7 -3 21 -20 58 -70 79 -151 59 -231 -7 -25 -9 -49 -6
-53 4 -3 22 11 40 33 l32 39 64 -22 c77 -26 154 -77 197 -131 l32 -39 -57 26
c-90 41 -147 42 -232 3 -39 -18 -71 -36 -71 -40 0 -4 34 -10 74 -12 56 -2 82
-9 103 -24 29 -22 67 -89 78 -139 6 -28 5 -28 -25 13 -40 56 -84 82 -138 82
-37 0 -50 -6 -79 -35 -32 -32 -34 -38 -28 -77 25 -151 149 -276 459 -464 81
-49 181 -116 222 -149 94 -75 187 -189 230 -280 47 -99 105 -305 111 -399 l6
-78 -43 31 c-134 97 -367 108 -535 26 -53 -26 -125 -81 -125 -95 0 -5 19 -3
41 5 54 19 86 18 128 -4 39 -21 35 -24 -54 -36 -71 -10 -192 -56 -261 -100
-101 -65 -192 -145 -404 -360 -210 -211 -381 -371 -505 -470 -77 -62 -275
-199 -275 -191 0 3 13 21 30 39 54 62 137 205 185 318 47 112 105 316 105 371
0 18 9 38 26 53 24 22 27 35 36 137 21 237 8 324 -72 504 -17 36 -30 68 -30
70 0 2 16 4 35 4 19 0 35 4 35 8 0 5 13 7 28 4 16 -2 76 1 133 7 57 5 209 16
337 22 127 7 232 17 232 22 0 13 -381 3 -608 -17 -263 -23 -272 -20 -170 59
34 27 56 51 50 53 -16 5 -88 -38 -162 -97 -40 -32 -75 -51 -98 -55 -201 -30
-382 -64 -504 -95 l-148 -38 -24 26 c-13 14 -35 49 -49 76 -47 95 -52 84 90
173 342 213 639 357 893 432 85 26 118 46 55 36 -211 -36 -549 -186 -917 -405
l-168 -100 0 77 c0 43 9 110 19 150 11 39 15 72 9 72 -16 0 -50 -91 -67 -178
-14 -75 -18 -83 -41 -88 -14 -3 -40 -9 -58 -14 -28 -7 -33 -6 -28 6 21 55 70
227 90 319 86 382 80 739 -15 986 -62 160 -162 224 -267 170 -63 -33 -155
-138 -211 -242 l-30 -53 -11 29 c-18 47 -40 65 -78 65 -28 0 -43 -8 -71 -38
l-36 -38 3 141 c6 208 -20 275 -107 275 -56 0 -105 -45 -147 -135 -33 -72 -64
-191 -64 -244 0 -28 -1 -30 -35 -24 -45 7 -77 -20 -101 -84 l-17 -45 -15 29
c-51 101 -160 133 -225 65 -34 -35 -72 -119 -98 -218 -29 -107 -31 -361 -5
-509 29 -161 118 -432 186 -565 l19 -38 -59 -10 c-33 -6 -76 -19 -96 -28 -39
-19 -88 -86 -99 -134 l-6 -29 -72 31 c-40 16 -76 33 -80 38 -5 4 27 26 70 50
43 23 93 53 111 66 79 61 85 147 24 354 -123 418 -131 451 -142 554 -33 322
104 747 298 929 70 65 109 64 131 -4 8 -26 41 -189 41 -206 0 -2 4 -3 9 -3 13
0 68 129 80 188 18 89 14 224 -9 282 -11 28 -18 56 -15 61 4 5 20 9 36 9 34 0
52 -31 64 -112 4 -27 11 -48 16 -48 13 0 22 65 17 131 l-4 61 53 47 c74 66
245 166 374 218 183 74 313 102 542 115 108 7 197 15 197 19 0 17 -159 61
-290 80 -93 13 -500 18 -620 7 l-75 -6 65 13 c186 39 523 44 785 10 247 -31
405 -64 510 -106 55 -22 121 -49 148 -60 141 -56 -62 85 -268 186 -143 70
-281 121 -450 165 -129 34 -115 39 28 9 130 -26 350 -98 497 -162 202 -87 480
-232 480 -249 0 -4 -40 -34 -90 -66 -49 -31 -90 -60 -90 -64 0 -17 32 -6 112
35 101 52 183 111 448 327 113 92 246 196 295 232 329 236 676 382 1007 422
119 15 399 19 483 8z m-190 -124 c-52 -57 -97 -161 -133 -303 -55 -220 -53
-335 13 -609 19 -78 55 -247 81 -376 72 -365 72 -584 -1 -834 -59 -203 -142
-352 -272 -487 -118 -122 -117 -122 -195 -63 -64 50 -201 133 -350 214 -143
77 -278 234 -278 322 0 39 36 55 88 40 46 -14 72 -40 111 -112 l30 -55 16 37
c36 87 7 188 -74 260 l-46 41 50 -8 c63 -9 124 -35 186 -81 56 -41 60 -33 23
46 -61 131 -167 210 -326 244 -20 5 -29 14 -34 34 -21 100 -74 174 -158 222
-28 17 -54 30 -58 30 -4 0 13 -39 38 -87 41 -77 46 -93 42 -135 -10 -103 -89
-118 -170 -31 -48 51 -63 106 -63 228 1 97 5 121 33 204 169 489 584 927 1102
1162 115 52 343 138 369 138 7 1 -4 -18 -24 -41z m-3622 -125 c71 -106 137
-237 161 -320 l15 -52 -57 -6 c-31 -3 -68 -7 -82 -8 l-25 -2 -7 125 c-7 126
-27 221 -66 318 -12 29 -18 51 -13 48 5 -3 38 -50 74 -103z m195 -524 l3 -35
-81 -32 c-45 -18 -87 -32 -94 -32 -15 0 -26 43 -26 102 l0 39 98 -3 97 -3 3
-36z m202 15 c-74 -13 -138 -23 -142 -24 -5 0 -8 11 -8 25 l0 25 143 -1 142
-1 -135 -24z m-513 -889 c12 -8 27 -32 34 -53 18 -50 15 -249 -5 -426 -9 -77
-14 -141 -12 -143 2 -2 15 34 29 79 31 99 81 186 119 208 25 13 29 13 44 -2
31 -31 29 -113 -5 -245 -45 -174 -61 -297 -61 -473 -1 -235 23 -358 110 -573
16 -39 28 -72 27 -73 -1 -1 -34 -8 -74 -17 -106 -24 -224 -73 -270 -112 l-41
-35 -116 0 c-127 0 -187 -15 -252 -65 -27 -21 -34 -33 -34 -61 0 -44 43 -88
181 -183 l102 -71 34 40 c23 26 65 54 128 85 102 50 125 72 125 120 0 40 -23
71 -71 95 -21 11 -39 23 -39 25 0 11 181 95 260 120 76 25 105 29 265 34 175
6 179 7 131 20 l-49 14 22 18 c27 22 115 55 193 74 53 12 58 12 58 -4 0 -10
-48 -52 -118 -104 -66 -48 -129 -99 -142 -112 -48 -51 5 -23 125 65 68 49 129
92 137 95 10 4 20 -10 32 -46 10 -28 34 -71 53 -96 19 -25 33 -46 31 -47 -2
-1 -48 -19 -103 -41 -107 -41 -234 -100 -249 -115 -24 -24 7 -15 114 31 245
107 259 112 287 94 l24 -16 -64 -62 c-67 -65 -124 -140 -246 -320 -125 -184
-244 -283 -354 -294 -59 -6 -181 16 -251 47 -23 9 -81 40 -130 69 -49 28 -90
51 -92 51 -2 0 -1 -7 2 -15 4 -9 -6 -27 -25 -44 -82 -77 -270 -33 -399 92 -76
74 -169 218 -194 300 -37 125 -10 235 68 272 106 50 359 41 534 -19 39 -14 42
-14 25 -1 -10 8 -34 20 -51 27 -30 11 -34 18 -57 102 -60 216 -101 481 -122
781 -8 116 -19 235 -26 265 -15 68 -7 154 19 214 17 37 26 46 46 46 31 0 43
-21 54 -92 l9 -53 7 90 c10 126 24 199 52 283 47 141 111 199 171 157z m658
-147 c94 -82 145 -297 145 -613 0 -230 -24 -414 -92 -698 l-30 -128 -51 -33
c-29 -18 -61 -43 -71 -55 -19 -21 -80 -30 -89 -13 -3 4 2 43 10 87 26 144 4
343 -49 450 -34 68 -66 95 -113 95 -56 0 -82 -30 -116 -133 l-27 -82 -7 80
c-29 306 72 712 235 943 94 134 179 167 255 100z m-1130 -291 c66 -69 98 -199
115 -467 15 -252 57 -532 114 -765 13 -55 24 -101 23 -101 -1 -1 -30 5 -64 13
l-63 16 0 83 c0 283 -167 569 -269 460 -12 -13 -24 -40 -28 -60 -3 -20 -9 -36
-13 -36 -12 0 -48 162 -61 275 -13 115 -6 244 20 371 24 115 55 187 98 224 48
42 78 39 128 -13z m820 -659 c82 -37 150 -323 116 -493 -19 -93 -20 -95 -48
-95 -20 0 -24 4 -18 17 57 150 3 410 -91 437 -29 9 -70 -35 -89 -93 l-15 -46
5 60 c9 91 33 165 65 196 32 32 38 34 75 17z m-863 -137 c56 -45 117 -210 137
-376 13 -109 14 -125 2 -125 -4 0 -11 34 -15 75 -12 134 -65 264 -118 295 -26
14 -29 13 -49 -6 -13 -14 -24 -41 -28 -75 l-7 -54 -12 40 c-7 22 -12 74 -12
116 0 62 4 81 21 103 24 31 47 33 81 7z m2345 -533 c60 -124 107 -317 88 -365
-6 -15 -10 -13 -26 17 -16 27 -19 29 -14 10 3 -14 8 -77 11 -140 4 -103 3
-112 -10 -86 -13 29 -13 29 -20 -30 -36 -300 -180 -614 -377 -818 -70 -74
-184 -156 -216 -156 -8 0 1 20 20 48 19 26 44 65 56 87 l23 40 -42 -45 c-135
-143 -171 -176 -224 -211 -91 -60 -153 -79 -255 -79 -81 0 -94 3 -159 35 -98
50 -183 142 -251 275 -51 102 -67 103 -32 3 10 -31 13 -49 6 -45 -6 4 -35 26
-65 48 -30 23 -131 88 -223 144 -183 112 -233 155 -306 264 -42 63 -131 217
-131 227 0 2 30 4 68 4 86 0 114 8 155 45 l33 29 70 -53 c70 -52 138 -85 223
-106 80 -21 200 -152 292 -320 130 -238 195 -286 347 -259 153 28 290 170 356
370 46 137 59 251 61 529 2 321 3 325 111 374 90 42 159 88 248 166 61 53 75
60 111 60 41 0 42 -1 72 -62z m-243 3 c-71 -56 -169 -107 -244 -126 -78 -20
-164 -14 -248 17 l-57 21 40 14 c75 27 471 108 544 112 7 1 -8 -16 -35 -38z
m-2480 -159 l89 -38 16 -80 16 -81 -100 -7 c-55 -3 -120 -9 -144 -12 l-44 -7
6 38 c3 21 22 72 42 113 19 41 35 76 35 78 0 2 -10 4 -21 4 -18 0 -19 2 -9 15
16 19 11 20 114 -23z m764 8 c35 -22 40 -40 17 -64 -63 -62 -290 -35 -290 34
0 37 37 50 145 50 77 0 101 -4 128 -20z m-572 -330 c72 -132 182 -232 303
-275 43 -16 51 -24 74 -74 32 -69 100 -183 139 -233 16 -21 27 -38 24 -38 -10
0 -110 62 -196 121 -95 65 -269 215 -317 275 -27 33 -32 36 -33 18 0 -11 18
-49 40 -82 22 -34 37 -62 34 -62 -11 0 -221 124 -283 167 -35 24 -65 42 -68
40 -2 -3 3 -23 11 -47 l14 -42 -25 24 c-33 31 -58 81 -72 146 -14 69 -14 111
2 117 26 10 165 23 237 21 l74 -1 42 -75z"/>
<path d="M2994 4229 c77 -84 136 -194 167 -314 16 -63 20 -110 20 -224 0 -79
2 -141 6 -138 14 14 33 128 33 197 0 198 -103 436 -224 518 -27 17 -53 32 -58
32 -5 0 20 -32 56 -71z"/>
<path d="M2575 4231 c-131 -34 -325 -174 -431 -313 -62 -80 -134 -238 -108
-238 5 0 29 21 54 46 64 66 181 141 257 164 38 12 93 20 133 20 59 0 73 -4
100 -26 55 -47 118 -204 121 -305 1 -27 5 -49 9 -49 12 0 71 89 103 157 28 60
32 81 35 171 4 85 1 114 -18 171 -22 69 -75 149 -121 183 -29 22 -90 31 -134
19z"/>
<path d="M3250 4123 c0 -5 10 -33 22 -63 18 -45 22 -75 23 -167 0 -62 3 -113
6 -113 11 0 29 85 29 132 0 53 -24 150 -47 189 -16 27 -33 38 -33 22z"/>
</g>
</svg>
